{"title":"Schindlers List (1993) 1080p BluRay {Dual Audio} {6Ch.} [Hindi D","uid":9712879,"size":4008410337,"categoryP":"video","categoryS":"hd___movies","magnet":"?xt=urn:btih:2d9ab7ec6a20693562137134eea8222694dd7ed9&amp;dn=Schindlers+List+%281993%29+1080p+BluRay+%7BDual+Audio%7D+%7B6Ch.%7D+%5BHindi+D&amp;tr=udp%3A%2F%2Ftracker.openbittorrent.com%3A80&amp;tr=udp%3A%2F%2Fopen.demonii.com%3A1337&amp;tr=udp%3A%2F%2Ftracker.coppersurfer.tk%3A6969&amp;tr=udp%3A%2F%2Fexodus.desync.com%3A6969","seeders":0,"leechers":4,"uploader":"SaNRiM","files":-1,"time":1394128501,"description":"Storyline\nOskar Schindler is a vainglorious and greedy German businessman who becomes unlikely humanitarian amid the barbaric Nazi reign when he feels compelled to turn his factory into a refuge for Jews. Based on the true story of Oskar Schindler who managed to save about 1100 Jews from being gassed at the Auschwitz concentration camp. A testament for the good in all of us.\n\n\n\nTorrent Info\n\nGeneral\n\nUnique ID : 254475378719955059192887562540633676940 (0xBF722CD9D0D42125ADD7039D2B49DC8C)\nComplete name : Schindlers List (1993) 1080p BluRay {Dual Audio} {6Ch.} [Hindi DTS 5.1-English DD 5.1] ~SaNRiM~.mkv\nFormat : Matroska\nFormat version : Version 4 / Version 2\nFile size : 3.72 GiB\nDuration : 3h 15mn\nOverall bit rate : 2 726 Kbps\nEncoded date : UTC 2014-02-28 18:51:06\nWriting library : libebml v1.3.0 + libmatroska v1.4.1\n\n\nVideo\n\nID : 1\nFormat : AVC\nFormat/Info : Advanced Video Codec\nFormat profile : &lt;a class=&quot;__cf_email__&quot; href=&quot;/cdn-cgi/l/email-protection&quot; data-cfemail=&quot;642c0d030c2428504a54&quot;&gt;[email&amp;#160;protected]&lt;/a&gt;&lt;script cf-hash='f9e31' type=&quot;text/javascript&quot;&gt;\n/* &lt;![CDATA[ */!function(){try{var t=&quot;currentScript&quot;in document?document.currentScript:function(){for(var t=document.getElementsByTagName(&quot;script&quot;),e=t.length;e--;)if(t[e].getAttribute(&quot;cf-hash&quot;))return t[e]}();if(t&amp;&amp;t.previousSibling){var e,r,n,i,c=t.previousSibling,a=c.getAttribute(&quot;data-cfemail&quot;);if(a){for(e=&quot;&quot;,r=parseInt(a.substr(0,2),16),n=2;a.length-n;n+=2)i=parseInt(a.substr(n,2),16)^r,e+=String.fromCharCode(i);e=document.createTextNode(e),c.parentNode.replaceChild(e,c)}}}catch(u){}}();/* ]]&gt; */&lt;/script&gt;\nFormat settings, CABAC : Yes\nFormat settings, ReFrames : 3 frames\nCodec ID : V_MPEG4/ISO/AVC\nDuration : 3h 15mn\nBit rate : 1 737 Kbps\nWidth : 1 920 pixels\nHeight : 1 040 pixels\nDisplay aspect ratio : 1.85:1\nFrame rate mode : Constant\nFrame rate : 23.976 fps\nColor space : YUV\nChroma subsampling : 4:2:0\nBit depth : 8 bits\nScan type : Progressive\nBits/(Pixel*Frame) : 0.036\nStream size : 2.29 GiB (62%)\nTitle : ~SaNRiM~\nWriting library : x264 core 129 r2245 bc13772\nLanguage : English\nDefault : Yes\nForced : No\n\n\nAudio #1\n\nID : 2\nFormat : DTS\nFormat/Info : Digital Theater Systems\nMode : 16\nFormat settings, Endianness : Big\nCodec ID : A_DTS\nDuration : 3h 15mn\nBit rate mode : Constant\nBit rate : 768 Kbps\nChannel(s) : 6 channels\nChannel positions : Front: L C R, Side: L R, LFE\nSampling rate : 48.0 KHz\nBit depth : 24 bits\nCompression mode : Lossy\nStream size : 1.05 GiB (28%)\nTitle : ~SaNRiM~\nLanguage : Hindi\nDefault : Yes\nForced : No\n\n\nAudio #2\n\nID : 3\nFormat : AC-3\nFormat/Info : Audio Coding 3\nMode extension : CM (complete main)\nFormat settings, Endianness : Big\nCodec ID : A_AC3\nDuration : 3h 15mn\nBit rate mode : Constant\nBit rate : 224 Kbps\nChannel(s) : 6 channels\nChannel positions : Front: L C R, Side: L R, LFE\nSampling rate : 48.0 KHz\nBit depth : 16 bits\nCompression mode : Lossy\nStream size : 313 MiB (8%)\nTitle : ~SaNRiM~\nLanguage : English\nDefault : No\nForced : No\n\n\n\nScreens\n &lt;a href=&quot;\nhttp://someimage.com/TQtQWBP&quot; rel=&quot;nofollow&quot; target=&quot;_NEW&quot;&gt;\nhttp://someimage.com/TQtQWBP&lt;/a&gt; &lt;a href=&quot;\nhttp://someimage.com/W9zXEN9&quot; rel=&quot;nofollow&quot; target=&quot;_NEW&quot;&gt;\nhttp://someimage.com/W9zXEN9&lt;/a&gt; &lt;a href=&quot;\nhttp://someimage.com/kTOsXSE&quot; rel=&quot;nofollow&quot; target=&quot;_NEW&quot;&gt;\nhttp://someimage.com/kTOsXSE&lt;/a&gt; &lt;a href=&quot;\nhttp://someimage.com/N6LdUqt&quot; rel=&quot;nofollow&quot; target=&quot;_NEW&quot;&gt;\nhttp://someimage.com/N6LdUqt&lt;/a&gt; &lt;a href=&quot;\nhttp://someimage.com/aHfoWSL&quot; rel=&quot;nofollow&quot; target=&quot;_NEW&quot;&gt;\nhttp://someimage.com/aHfoWSL&lt;/a&gt; &lt;a href=&quot;\nhttp://someimage.com/QDOVPUf&quot; rel=&quot;nofollow&quot; target=&quot;_NEW&quot;&gt;\nhttp://someimage.com/QDOVPUf&lt;/a&gt; &lt;a href=&quot;\nhttp://someimage.com/BjVPGZ5&quot; rel=&quot;nofollow&quot; target=&quot;_NEW&quot;&gt;\nhttp://someimage.com/BjVPGZ5&lt;/a&gt; &lt;a href=&quot;\nhttp://someimage.com/eeWSDp7&quot; rel=&quot;nofollow&quot; target=&quot;_NEW&quot;&gt;\nhttp://someimage.com/eeWSDp7&lt;/a&gt; &lt;a href=&quot;\nhttp://someimage.com/Bv9Gvki&quot; rel=&quot;nofollow&quot; target=&quot;_NEW&quot;&gt;\nhttp://someimage.com/Bv9Gvki&lt;/a&gt; &lt;a href=&quot;\nhttp://someimage.com/fagHxtO&quot; rel=&quot;nofollow&quot; target=&quot;_NEW&quot;&gt;\nhttp://someimage.com/fagHxtO&lt;/a&gt; &lt;a href=&quot;\nhttp://someimage.com/TPU4py4&quot; rel=&quot;nofollow&quot; target=&quot;_NEW&quot;&gt;\nhttp://someimage.com/TPU4py4&lt;/a&gt; &lt;a href=&quot;\nhttp://someimage.com/aKiY9yH&quot; rel=&quot;nofollow&quot; target=&quot;_NEW&quot;&gt;\nhttp://someimage.com/aKiY9yH&lt;/a&gt; &lt;a href=&quot;\nhttp://someimage.com/VxqHkH3&quot; rel=&quot;nofollow&quot; target=&quot;_NEW&quot;&gt;\nhttp://someimage.com/VxqHkH3&lt;/a&gt; &lt;a href=&quot;\nhttp://someimage.com/ihfZSLp&quot; rel=&quot;nofollow&quot; target=&quot;_NEW&quot;&gt;\nhttp://someimage.com/ihfZSLp&lt;/a&gt; &lt;a href=&quot;\nhttp://someimage.com/1IRWdSW&quot; rel=&quot;nofollow&quot; target=&quot;_NEW&quot;&gt;\nhttp://someimage.com/1IRWdSW&lt;/a&gt; &lt;a href=&quot;\nhttp://someimage.com/AF2u6Uq&quot; rel=&quot;nofollow&quot; target=&quot;_NEW&quot;&gt;\nhttp://someimage.com/AF2u6Uq&lt;/a&gt; &lt;a href=&quot;\nhttp://someimage.com/bVBD5ZQ&quot; rel=&quot;nofollow&quot; target=&quot;_NEW&quot;&gt;\nhttp://someimage.com/bVBD5ZQ&lt;/a&gt; &lt;a href=&quot;\nhttp://someimage.com/JClAVaE&quot; rel=&quot;nofollow&quot; target=&quot;_NEW&quot;&gt;\nhttp://someimage.com/JClAVaE&lt;/a&gt; &lt;a href=&quot;\nhttp://someimage.com/c6N3EXd&quot; rel=&quot;nofollow&quot; target=&quot;_NEW&quot;&gt;\nhttp://someimage.com/c6N3EXd&lt;/a&gt;\n\n\n\n                   A BIG THANKS TO VDA FOR AUDIO\n\n\n\n                  If you like my work please comment\n                          Any request? Just PM me\n                       Please seed long after download\n                         Thank you &amp; enjoy the best\n                                 ~SaNRiM~","torrent":{"xt":"urn:btih:2d9ab7ec6a20693562137134eea8222694dd7ed9","amp;dn":"Schindlers+List+%281993%29+1080p+BluRay+%7BDual+Audio%7D+%7B6Ch.%7D+%5BHindi+D","amp;tr":["udp%3A%2F%2Ftracker.openbittorrent.com%3A80","udp%3A%2F%2Fopen.demonii.com%3A1337","udp%3A%2F%2Ftracker.coppersurfer.tk%3A6969","udp%3A%2F%2Fexodus.desync.com%3A6969"],"infoHash":"2d9ab7ec6a20693562137134eea8222694dd7ed9","infoHashBuffer":{"type":"Buffer","data":[45,154,183,236,106,32,105,53,98,19,113,52,238,168,34,38,148,221,126,217]},"announce":[],"urlList":[]}}